<mxfile host="app.diagrams.net" modified="2022-08-31T06:12:27.476Z" agent="5.0 (Windows NT 10.0; WOW64) AppleWebKit/537.36 (KHTML, like Gecko) Chrome/78.0.3904.108 Safari/537.36" etag="CIpzVEEdP9TUimdaZ8zr" version="20.2.7" type="github">
  <diagram id="GxNqW7-R3AEM1tn8TcDk" name="Page-1">
    <mxGraphModel dx="2589" dy="1340" grid="1" gridSize="10" guides="1" tooltips="1" connect="1" arrows="1" fold="1" page="1" pageScale="1" pageWidth="827" pageHeight="1169" background="#333333" math="0" shadow="0">
      <root>
        <mxCell id="0" />
        <mxCell id="1" parent="0" />
        <mxCell id="NiXLM8bQ3l16vitXh8D_-79" value="阿里巴巴数据中台全景图" style="text;html=1;strokeColor=none;fillColor=none;align=center;verticalAlign=middle;whiteSpace=wrap;rounded=0;fontSize=36;fontStyle=1;fontColor=#FFFFFF;" vertex="1" parent="1">
          <mxGeometry x="608" y="51" width="420" height="70" as="geometry" />
        </mxCell>
        <mxCell id="NiXLM8bQ3l16vitXh8D_-80" value="赋能小二 -&amp;nbsp;阿里数据" style="rounded=1;whiteSpace=wrap;html=1;strokeColor=#66FFFF;fillColor=none;fontSize=24;arcSize=4;verticalAlign=top;fontStyle=1;fontColor=#FFFFFF;" vertex="1" parent="1">
          <mxGeometry x="40" y="135" width="470" height="120" as="geometry" />
        </mxCell>
        <mxCell id="NiXLM8bQ3l16vitXh8D_-81" value="数据资源管理" style="rounded=1;whiteSpace=wrap;html=1;strokeColor=#66FFFF;fillColor=none;fontSize=20;arcSize=2;fontColor=#FFFFFF;verticalAlign=top;" vertex="1" parent="1">
          <mxGeometry x="40" y="270" width="230" height="530" as="geometry" />
        </mxCell>
        <mxCell id="NiXLM8bQ3l16vitXh8D_-82" value="社会影响 - 数据大屏" style="rounded=1;whiteSpace=wrap;html=1;strokeColor=#66FFFF;fillColor=none;fontSize=24;arcSize=4;verticalAlign=top;fontStyle=1;fontColor=#FFFFFF;" vertex="1" parent="1">
          <mxGeometry x="520" y="135" width="470" height="120" as="geometry" />
        </mxCell>
        <mxCell id="NiXLM8bQ3l16vitXh8D_-83" value="&lt;span style=&quot;white-space: normal&quot;&gt;赋能商家 - 生意参谋&lt;/span&gt;" style="rounded=1;whiteSpace=wrap;html=1;strokeColor=#66FFFF;fillColor=none;fontSize=24;arcSize=4;verticalAlign=top;fontStyle=1;fontColor=#FFFFFF;" vertex="1" parent="1">
          <mxGeometry x="1010" y="135" width="580" height="120" as="geometry" />
        </mxCell>
        <mxCell id="NiXLM8bQ3l16vitXh8D_-84" value="面向应用及开发 -&amp;gt;&amp;nbsp;统一数据服务中间件（OneService）" style="rounded=1;whiteSpace=wrap;html=1;strokeColor=#66FFFF;fillColor=none;fontSize=24;arcSize=4;verticalAlign=middle;fontStyle=1;fontColor=#FFFFFF;" vertex="1" parent="1">
          <mxGeometry x="285.5" y="272" width="1065" height="50" as="geometry" />
        </mxCell>
        <mxCell id="NiXLM8bQ3l16vitXh8D_-85" value="以业务/自然对象+萃取标签为架构构建（OneID体系）" style="rounded=1;whiteSpace=wrap;html=1;strokeColor=#66FFFF;fillColor=none;fontSize=20;arcSize=4;fontColor=#FFFFFF;verticalAlign=top;fontStyle=1" vertex="1" parent="1">
          <mxGeometry x="286" y="340" width="1065" height="150" as="geometry" />
        </mxCell>
        <mxCell id="NiXLM8bQ3l16vitXh8D_-86" value="以业务板块+业务过程+分析维度为架构构建（OneData体系）" style="rounded=1;whiteSpace=wrap;html=1;strokeColor=#66FFFF;fillColor=none;fontSize=20;arcSize=4;fontColor=#FFFFFF;verticalAlign=top;fontStyle=1" vertex="1" parent="1">
          <mxGeometry x="286" y="503" width="1065" height="150" as="geometry" />
        </mxCell>
        <mxCell id="NiXLM8bQ3l16vitXh8D_-87" value="采集/接入" style="rounded=1;whiteSpace=wrap;html=1;strokeColor=#66FFFF;fillColor=none;fontSize=20;arcSize=4;fontColor=#FFFFFF;verticalAlign=top;fontStyle=1" vertex="1" parent="1">
          <mxGeometry x="286" y="673" width="1065" height="130" as="geometry" />
        </mxCell>
        <mxCell id="NiXLM8bQ3l16vitXh8D_-88" value="&lt;blockquote style=&quot;margin: 0 0 0 40px ; border: none ; padding: 0px&quot;&gt;计算与存储平台&lt;/blockquote&gt;" style="rounded=1;whiteSpace=wrap;html=1;strokeColor=#66FFFF;fillColor=none;fontSize=20;arcSize=4;fontColor=#FFFFFF;verticalAlign=middle;fontStyle=1;align=left;" vertex="1" parent="1">
          <mxGeometry x="40" y="820" width="1550" height="70" as="geometry" />
        </mxCell>
        <mxCell id="NiXLM8bQ3l16vitXh8D_-89" value="&lt;blockquote style=&quot;margin: 0 0 0 40px ; border: none ; padding: 0px&quot;&gt;智能数据研发&lt;/blockquote&gt;" style="rounded=1;whiteSpace=wrap;html=1;strokeColor=#66FFFF;fillColor=none;fontSize=20;arcSize=2;fontColor=#FFFFFF;verticalAlign=top;fontStyle=1;align=left;" vertex="1" parent="1">
          <mxGeometry x="1360" y="270" width="230" height="530" as="geometry" />
        </mxCell>
        <mxCell id="NiXLM8bQ3l16vitXh8D_-90" value="阿里数据PC端" style="rounded=1;whiteSpace=wrap;html=1;strokeColor=none;fillColor=#FF3333;fontSize=18;fontColor=#FFFFFF;align=center;arcSize=7;" vertex="1" parent="1">
          <mxGeometry x="50" y="180" width="140" height="64" as="geometry" />
        </mxCell>
        <mxCell id="NiXLM8bQ3l16vitXh8D_-91" value="阿里数据APP" style="rounded=1;whiteSpace=wrap;html=1;strokeColor=none;fillColor=#FF3333;fontSize=18;fontColor=#FFFFFF;align=center;arcSize=7;" vertex="1" parent="1">
          <mxGeometry x="205" y="180" width="140" height="64" as="geometry" />
        </mxCell>
        <mxCell id="NiXLM8bQ3l16vitXh8D_-92" value="数据化运营" style="rounded=1;whiteSpace=wrap;html=1;strokeColor=none;fillColor=#FF3333;fontSize=18;fontColor=#FFFFFF;align=center;arcSize=7;" vertex="1" parent="1">
          <mxGeometry x="360" y="180" width="140" height="64" as="geometry" />
        </mxCell>
        <mxCell id="NiXLM8bQ3l16vitXh8D_-93" value="媒体数据大屏" style="rounded=1;whiteSpace=wrap;html=1;strokeColor=none;fillColor=#FF3333;fontSize=18;fontColor=#FFFFFF;align=center;arcSize=7;" vertex="1" parent="1">
          <mxGeometry x="535" y="180" width="140" height="64" as="geometry" />
        </mxCell>
        <mxCell id="NiXLM8bQ3l16vitXh8D_-94" value="接待数据大屏" style="rounded=1;whiteSpace=wrap;html=1;strokeColor=none;fillColor=#FF3333;fontSize=18;fontColor=#FFFFFF;align=center;arcSize=7;" vertex="1" parent="1">
          <mxGeometry x="685.5" y="180" width="140" height="64" as="geometry" />
        </mxCell>
        <mxCell id="NiXLM8bQ3l16vitXh8D_-95" value="技术大屏" style="rounded=1;whiteSpace=wrap;html=1;strokeColor=none;fillColor=#FF3333;fontSize=18;fontColor=#FFFFFF;align=center;arcSize=7;" vertex="1" parent="1">
          <mxGeometry x="835.5" y="180" width="140" height="64" as="geometry" />
        </mxCell>
        <mxCell id="NiXLM8bQ3l16vitXh8D_-96" value="零售电商版" style="rounded=1;whiteSpace=wrap;html=1;strokeColor=none;fillColor=#FF3333;fontSize=18;fontColor=#FFFFFF;align=center;arcSize=7;" vertex="1" parent="1">
          <mxGeometry x="1020" y="180" width="110" height="64" as="geometry" />
        </mxCell>
        <mxCell id="NiXLM8bQ3l16vitXh8D_-97" value="AE版" style="rounded=1;whiteSpace=wrap;html=1;strokeColor=none;fillColor=#FF3333;fontSize=18;fontColor=#FFFFFF;align=center;arcSize=7;" vertex="1" parent="1">
          <mxGeometry x="1267" y="180" width="110" height="64" as="geometry" />
        </mxCell>
        <mxCell id="NiXLM8bQ3l16vitXh8D_-98" value="CP版" style="rounded=1;whiteSpace=wrap;html=1;strokeColor=none;fillColor=#FF3333;fontSize=18;fontColor=#FFFFFF;align=center;arcSize=7;" vertex="1" parent="1">
          <mxGeometry x="1390" y="180" width="110" height="64" as="geometry" />
        </mxCell>
        <mxCell id="NiXLM8bQ3l16vitXh8D_-99" value="……" style="rounded=1;whiteSpace=wrap;html=1;strokeColor=none;fillColor=#FF3333;fontSize=18;fontColor=#FFFFFF;align=center;arcSize=7;fontStyle=1" vertex="1" parent="1">
          <mxGeometry x="1510" y="180" width="64" height="64" as="geometry" />
        </mxCell>
        <mxCell id="NiXLM8bQ3l16vitXh8D_-100" value="资产地图" style="rounded=1;whiteSpace=wrap;html=1;strokeColor=none;fillColor=#47BCFF;fontSize=20;fontColor=#FFFFFF;align=center;arcSize=7;fontStyle=1" vertex="1" parent="1">
          <mxGeometry x="65" y="325" width="180" height="76" as="geometry" />
        </mxCell>
        <mxCell id="NiXLM8bQ3l16vitXh8D_-101" value="资产分析" style="rounded=1;whiteSpace=wrap;html=1;strokeColor=none;fillColor=#47BCFF;fontSize=20;fontColor=#FFFFFF;align=center;arcSize=7;fontStyle=1" vertex="1" parent="1">
          <mxGeometry x="65" y="419" width="180" height="76" as="geometry" />
        </mxCell>
        <mxCell id="NiXLM8bQ3l16vitXh8D_-102" value="资产管理" style="rounded=1;whiteSpace=wrap;html=1;strokeColor=none;fillColor=#47BCFF;fontSize=20;fontColor=#FFFFFF;align=center;arcSize=7;fontStyle=1" vertex="1" parent="1">
          <mxGeometry x="65" y="513" width="180" height="76" as="geometry" />
        </mxCell>
        <mxCell id="NiXLM8bQ3l16vitXh8D_-103" value="资产应用" style="rounded=1;whiteSpace=wrap;html=1;strokeColor=none;fillColor=#47BCFF;fontSize=20;fontColor=#FFFFFF;align=center;arcSize=7;fontStyle=1" vertex="1" parent="1">
          <mxGeometry x="65" y="607" width="180" height="76" as="geometry" />
        </mxCell>
        <mxCell id="NiXLM8bQ3l16vitXh8D_-104" value="资产运营" style="rounded=1;whiteSpace=wrap;html=1;strokeColor=none;fillColor=#47BCFF;fontSize=20;fontColor=#FFFFFF;align=center;arcSize=7;fontStyle=1" vertex="1" parent="1">
          <mxGeometry x="65" y="701" width="180" height="76" as="geometry" />
        </mxCell>
        <mxCell id="NiXLM8bQ3l16vitXh8D_-105" value="1688版" style="rounded=1;whiteSpace=wrap;html=1;strokeColor=none;fillColor=#FF3333;fontSize=24;fontColor=#FFFFFF;align=center;arcSize=7;" vertex="1" parent="1">
          <mxGeometry x="1143" y="180" width="110" height="64" as="geometry" />
        </mxCell>
        <mxCell id="NiXLM8bQ3l16vitXh8D_-106" value="模型构建" style="rounded=1;whiteSpace=wrap;html=1;strokeColor=none;fillColor=#47BCFF;fontSize=20;fontColor=#FFFFFF;align=center;arcSize=7;fontStyle=1" vertex="1" parent="1">
          <mxGeometry x="1385" y="394" width="180" height="56" as="geometry" />
        </mxCell>
        <mxCell id="NiXLM8bQ3l16vitXh8D_-107" value="数仓规则" style="rounded=1;whiteSpace=wrap;html=1;strokeColor=none;fillColor=#47BCFF;fontSize=20;fontColor=#FFFFFF;align=center;arcSize=7;fontStyle=1" vertex="1" parent="1">
          <mxGeometry x="1385" y="330" width="180" height="56" as="geometry" />
        </mxCell>
        <mxCell id="NiXLM8bQ3l16vitXh8D_-108" value="指标规范" style="rounded=1;whiteSpace=wrap;html=1;strokeColor=none;fillColor=#47BCFF;fontSize=20;fontColor=#FFFFFF;align=center;arcSize=7;fontStyle=1" vertex="1" parent="1">
          <mxGeometry x="1385" y="459" width="180" height="56" as="geometry" />
        </mxCell>
        <mxCell id="NiXLM8bQ3l16vitXh8D_-109" value="数据同步" style="rounded=1;whiteSpace=wrap;html=1;strokeColor=none;fillColor=#47BCFF;fontSize=20;fontColor=#FFFFFF;align=center;arcSize=7;fontStyle=1" vertex="1" parent="1">
          <mxGeometry x="1385" y="523" width="180" height="56" as="geometry" />
        </mxCell>
        <mxCell id="NiXLM8bQ3l16vitXh8D_-110" value="数据开发" style="rounded=1;whiteSpace=wrap;html=1;strokeColor=none;fillColor=#47BCFF;fontSize=20;fontColor=#FFFFFF;align=center;arcSize=7;fontStyle=1" vertex="1" parent="1">
          <mxGeometry x="1385" y="587" width="180" height="56" as="geometry" />
        </mxCell>
        <mxCell id="NiXLM8bQ3l16vitXh8D_-111" value="任务调度" style="rounded=1;whiteSpace=wrap;html=1;strokeColor=none;fillColor=#47BCFF;fontSize=20;fontColor=#FFFFFF;align=center;arcSize=7;fontStyle=1" vertex="1" parent="1">
          <mxGeometry x="1385" y="652" width="180" height="56" as="geometry" />
        </mxCell>
        <mxCell id="NiXLM8bQ3l16vitXh8D_-112" value="监控告警" style="rounded=1;whiteSpace=wrap;html=1;strokeColor=none;fillColor=#47BCFF;fontSize=20;fontColor=#FFFFFF;align=center;arcSize=7;fontStyle=1" vertex="1" parent="1">
          <mxGeometry x="1385" y="716" width="180" height="56" as="geometry" />
        </mxCell>
        <mxCell id="NiXLM8bQ3l16vitXh8D_-113" value="实时计算" style="rounded=1;whiteSpace=wrap;html=1;strokeColor=none;fillColor=#B266FF;fontSize=30;fontColor=#FFFFFF;align=center;arcSize=7;fontStyle=1" vertex="1" parent="1">
          <mxGeometry x="915" y="830" width="650" height="50" as="geometry" />
        </mxCell>
        <mxCell id="NiXLM8bQ3l16vitXh8D_-114" value="离线计算" style="rounded=1;whiteSpace=wrap;html=1;strokeColor=none;fillColor=#B266FF;fontSize=30;fontColor=#FFFFFF;align=center;arcSize=7;fontStyle=1" vertex="1" parent="1">
          <mxGeometry x="255.5" y="830" width="650" height="50" as="geometry" />
        </mxCell>
        <mxCell id="NiXLM8bQ3l16vitXh8D_-115" value="萃取数据中心" style="text;html=1;strokeColor=none;fillColor=none;align=center;verticalAlign=middle;whiteSpace=wrap;rounded=0;fontSize=18;fontColor=#FFFFFF;" vertex="1" parent="1">
          <mxGeometry x="312" y="398" width="48" height="65" as="geometry" />
        </mxCell>
        <mxCell id="NiXLM8bQ3l16vitXh8D_-116" value="公共数据中心" style="text;html=1;strokeColor=none;fillColor=none;align=center;verticalAlign=middle;whiteSpace=wrap;rounded=0;fontSize=18;fontColor=#FFFFFF;" vertex="1" parent="1">
          <mxGeometry x="312" y="563" width="48" height="65" as="geometry" />
        </mxCell>
        <mxCell id="NiXLM8bQ3l16vitXh8D_-117" value="垂直数据中心" style="text;html=1;strokeColor=none;fillColor=none;align=center;verticalAlign=middle;whiteSpace=wrap;rounded=0;fontSize=18;fontColor=#FFFFFF;" vertex="1" parent="1">
          <mxGeometry x="312" y="719" width="48" height="65" as="geometry" />
        </mxCell>
        <mxCell id="NiXLM8bQ3l16vitXh8D_-118" value="爬取/采购" style="text;html=1;strokeColor=none;fillColor=none;align=center;verticalAlign=middle;whiteSpace=wrap;rounded=0;fontSize=20;fontColor=#FFFFFF;" vertex="1" parent="1">
          <mxGeometry x="1222" y="675.5" width="100" height="28" as="geometry" />
        </mxCell>
        <mxCell id="NiXLM8bQ3l16vitXh8D_-119" value="消费者数据体系" style="rounded=1;whiteSpace=wrap;html=1;strokeColor=#B266FF;fillColor=none;fontSize=16;fontColor=#FFFFFF;align=center;dashed=1;arcSize=3;verticalAlign=bottom;" vertex="1" parent="1">
          <mxGeometry x="379" y="386" width="178" height="86" as="geometry" />
        </mxCell>
        <mxCell id="NiXLM8bQ3l16vitXh8D_-120" value="企业数据体系" style="rounded=1;whiteSpace=wrap;html=1;strokeColor=#B266FF;fillColor=none;fontSize=16;fontColor=#FFFFFF;align=center;dashed=1;arcSize=3;verticalAlign=bottom;" vertex="1" parent="1">
          <mxGeometry x="573" y="386" width="178" height="86" as="geometry" />
        </mxCell>
        <mxCell id="NiXLM8bQ3l16vitXh8D_-121" value="内容数据体系" style="rounded=1;whiteSpace=wrap;html=1;strokeColor=#B266FF;fillColor=none;fontSize=16;fontColor=#FFFFFF;align=center;dashed=1;arcSize=3;verticalAlign=bottom;" vertex="1" parent="1">
          <mxGeometry x="768" y="386" width="178" height="86" as="geometry" />
        </mxCell>
        <mxCell id="NiXLM8bQ3l16vitXh8D_-122" value="商品数据体系" style="rounded=1;whiteSpace=wrap;html=1;strokeColor=#B266FF;fillColor=none;fontSize=16;fontColor=#FFFFFF;align=center;dashed=1;arcSize=3;verticalAlign=bottom;" vertex="1" parent="1">
          <mxGeometry x="963" y="386" width="178" height="86" as="geometry" />
        </mxCell>
        <mxCell id="NiXLM8bQ3l16vitXh8D_-123" value="位置数据体系" style="rounded=1;whiteSpace=wrap;html=1;strokeColor=#B266FF;fillColor=none;fontSize=16;fontColor=#FFFFFF;align=center;dashed=1;arcSize=3;verticalAlign=bottom;" vertex="1" parent="1">
          <mxGeometry x="1157" y="386" width="178" height="86" as="geometry" />
        </mxCell>
        <mxCell id="NiXLM8bQ3l16vitXh8D_-124" value="电商" style="rounded=1;whiteSpace=wrap;html=1;strokeColor=#B266FF;fillColor=none;fontSize=16;fontColor=#FFFFFF;align=center;dashed=1;arcSize=3;verticalAlign=bottom;" vertex="1" parent="1">
          <mxGeometry x="381" y="551" width="108" height="80" as="geometry" />
        </mxCell>
        <mxCell id="NiXLM8bQ3l16vitXh8D_-125" value="文娱" style="rounded=1;whiteSpace=wrap;html=1;strokeColor=#B266FF;fillColor=none;fontSize=16;fontColor=#FFFFFF;align=center;dashed=1;arcSize=3;verticalAlign=bottom;" vertex="1" parent="1">
          <mxGeometry x="502" y="551" width="108" height="80" as="geometry" />
        </mxCell>
        <mxCell id="NiXLM8bQ3l16vitXh8D_-126" value="营销" style="rounded=1;whiteSpace=wrap;html=1;strokeColor=#B266FF;fillColor=none;fontSize=16;fontColor=#FFFFFF;align=center;dashed=1;arcSize=3;verticalAlign=bottom;" vertex="1" parent="1">
          <mxGeometry x="622.5" y="551" width="108" height="80" as="geometry" />
        </mxCell>
        <mxCell id="NiXLM8bQ3l16vitXh8D_-127" value="物流" style="rounded=1;whiteSpace=wrap;html=1;strokeColor=#B266FF;fillColor=none;fontSize=16;fontColor=#FFFFFF;align=center;dashed=1;arcSize=3;verticalAlign=bottom;" vertex="1" parent="1">
          <mxGeometry x="745" y="551" width="108" height="80" as="geometry" />
        </mxCell>
        <mxCell id="NiXLM8bQ3l16vitXh8D_-128" value="金融" style="rounded=1;whiteSpace=wrap;html=1;strokeColor=#B266FF;fillColor=none;fontSize=16;fontColor=#FFFFFF;align=center;dashed=1;arcSize=3;verticalAlign=bottom;" vertex="1" parent="1">
          <mxGeometry x="866" y="551" width="108" height="80" as="geometry" />
        </mxCell>
        <mxCell id="NiXLM8bQ3l16vitXh8D_-129" value="出行" style="rounded=1;whiteSpace=wrap;html=1;strokeColor=#B266FF;fillColor=none;fontSize=16;fontColor=#FFFFFF;align=center;dashed=1;arcSize=3;verticalAlign=bottom;" vertex="1" parent="1">
          <mxGeometry x="988" y="551" width="108" height="80" as="geometry" />
        </mxCell>
        <mxCell id="NiXLM8bQ3l16vitXh8D_-130" value="社交" style="rounded=1;whiteSpace=wrap;html=1;strokeColor=#B266FF;fillColor=none;fontSize=16;fontColor=#FFFFFF;align=center;dashed=1;arcSize=3;verticalAlign=bottom;" vertex="1" parent="1">
          <mxGeometry x="1109.5" y="551" width="108" height="80" as="geometry" />
        </mxCell>
        <mxCell id="NiXLM8bQ3l16vitXh8D_-131" value="健康" style="rounded=1;whiteSpace=wrap;html=1;strokeColor=#B266FF;fillColor=none;fontSize=16;fontColor=#FFFFFF;align=center;dashed=1;arcSize=3;verticalAlign=bottom;" vertex="1" parent="1">
          <mxGeometry x="1228" y="551" width="108" height="80" as="geometry" />
        </mxCell>
        <mxCell id="NiXLM8bQ3l16vitXh8D_-132" value="淘宝" style="rounded=1;whiteSpace=wrap;html=1;strokeColor=#B266FF;fillColor=none;fontSize=16;fontColor=#FFFFFF;align=center;dashed=1;arcSize=3;verticalAlign=middle;" vertex="1" parent="1">
          <mxGeometry x="378" y="720" width="64" height="64" as="geometry" />
        </mxCell>
        <mxCell id="NiXLM8bQ3l16vitXh8D_-133" value="天猫" style="rounded=1;whiteSpace=wrap;html=1;strokeColor=#B266FF;fillColor=none;fontSize=16;fontColor=#FFFFFF;align=center;dashed=1;arcSize=3;verticalAlign=middle;" vertex="1" parent="1">
          <mxGeometry x="457.5" y="720" width="64" height="64" as="geometry" />
        </mxCell>
        <mxCell id="NiXLM8bQ3l16vitXh8D_-134" value="聚划算" style="rounded=1;whiteSpace=wrap;html=1;strokeColor=#B266FF;fillColor=none;fontSize=16;fontColor=#FFFFFF;align=center;dashed=1;arcSize=3;verticalAlign=middle;" vertex="1" parent="1">
          <mxGeometry x="537" y="720" width="76" height="64" as="geometry" />
        </mxCell>
        <mxCell id="NiXLM8bQ3l16vitXh8D_-135" value="AE" style="rounded=1;whiteSpace=wrap;html=1;strokeColor=#B266FF;fillColor=none;fontSize=16;fontColor=#FFFFFF;align=center;dashed=1;arcSize=3;verticalAlign=middle;" vertex="1" parent="1">
          <mxGeometry x="627" y="720" width="64" height="64" as="geometry" />
        </mxCell>
        <mxCell id="NiXLM8bQ3l16vitXh8D_-136" value="妈妈" style="rounded=1;whiteSpace=wrap;html=1;strokeColor=#B266FF;fillColor=none;fontSize=16;fontColor=#FFFFFF;align=center;dashed=1;arcSize=3;verticalAlign=middle;" vertex="1" parent="1">
          <mxGeometry x="706" y="720" width="64" height="64" as="geometry" />
        </mxCell>
        <mxCell id="NiXLM8bQ3l16vitXh8D_-137" value="优土" style="rounded=1;whiteSpace=wrap;html=1;strokeColor=#B266FF;fillColor=none;fontSize=16;fontColor=#FFFFFF;align=center;dashed=1;arcSize=3;verticalAlign=middle;" vertex="1" parent="1">
          <mxGeometry x="785" y="720" width="64" height="64" as="geometry" />
        </mxCell>
        <mxCell id="NiXLM8bQ3l16vitXh8D_-138" value="UC" style="rounded=1;whiteSpace=wrap;html=1;strokeColor=#B266FF;fillColor=none;fontSize=16;fontColor=#FFFFFF;align=center;dashed=1;arcSize=3;verticalAlign=middle;" vertex="1" parent="1">
          <mxGeometry x="863.5" y="720" width="64" height="64" as="geometry" />
        </mxCell>
        <mxCell id="NiXLM8bQ3l16vitXh8D_-139" value="高德" style="rounded=1;whiteSpace=wrap;html=1;strokeColor=#B266FF;fillColor=none;fontSize=16;fontColor=#FFFFFF;align=center;dashed=1;arcSize=3;verticalAlign=middle;" vertex="1" parent="1">
          <mxGeometry x="942" y="720" width="64" height="64" as="geometry" />
        </mxCell>
        <mxCell id="NiXLM8bQ3l16vitXh8D_-140" value="神马" style="rounded=1;whiteSpace=wrap;html=1;strokeColor=#B266FF;fillColor=none;fontSize=16;fontColor=#FFFFFF;align=center;dashed=1;arcSize=3;verticalAlign=middle;" vertex="1" parent="1">
          <mxGeometry x="1020" y="720" width="64" height="64" as="geometry" />
        </mxCell>
        <mxCell id="NiXLM8bQ3l16vitXh8D_-141" value="……&lt;br&gt;·" style="rounded=1;whiteSpace=wrap;html=1;strokeColor=#B266FF;fillColor=none;fontSize=16;fontColor=#FFFFFF;align=center;dashed=1;arcSize=3;verticalAlign=middle;fontStyle=1" vertex="1" parent="1">
          <mxGeometry x="1099" y="720" width="51" height="64" as="geometry" />
        </mxCell>
        <mxCell id="NiXLM8bQ3l16vitXh8D_-142" value="天气" style="rounded=1;whiteSpace=wrap;html=1;strokeColor=#B266FF;fillColor=none;fontSize=16;fontColor=#FFFFFF;align=center;dashed=1;arcSize=3;verticalAlign=middle;fontStyle=1" vertex="1" parent="1">
          <mxGeometry x="1203" y="720" width="64" height="64" as="geometry" />
        </mxCell>
        <mxCell id="NiXLM8bQ3l16vitXh8D_-143" value="……&lt;br&gt;·" style="rounded=1;whiteSpace=wrap;html=1;strokeColor=#B266FF;fillColor=none;fontSize=16;fontColor=#FFFFFF;align=center;dashed=1;arcSize=3;verticalAlign=middle;fontStyle=1" vertex="1" parent="1">
          <mxGeometry x="1280.5" y="720" width="51" height="64" as="geometry" />
        </mxCell>
        <mxCell id="NiXLM8bQ3l16vitXh8D_-144" value="" style="outlineConnect=0;fontColor=#232F3E;gradientColor=none;fillColor=#B266FF;strokeColor=none;dashed=0;verticalLabelPosition=bottom;verticalAlign=top;align=center;html=1;fontSize=12;fontStyle=0;aspect=fixed;pointerEvents=1;shape=mxgraph.aws4.office_building;" vertex="1" parent="1">
          <mxGeometry x="649" y="397" width="25.64" height="40" as="geometry" />
        </mxCell>
        <mxCell id="NiXLM8bQ3l16vitXh8D_-145" value="" style="shape=mxgraph.bpmn.user_task;html=1;outlineConnect=0;strokeColor=#B266FF;fillColor=none;fontSize=16;fontColor=#FFFFFF;align=center;strokeWidth=2;" vertex="1" parent="1">
          <mxGeometry x="448" y="398" width="40" height="40" as="geometry" />
        </mxCell>
        <mxCell id="NiXLM8bQ3l16vitXh8D_-146" value="" style="html=1;verticalLabelPosition=bottom;align=center;labelBackgroundColor=#ffffff;verticalAlign=top;strokeWidth=2;strokeColor=#B266FF;fillColor=none;shadow=0;dashed=0;shape=mxgraph.ios7.icons.bag;fontSize=16;fontColor=#FFFFFF;aspect=fixed;" vertex="1" parent="1">
          <mxGeometry x="843.5" y="397" width="40" height="40" as="geometry" />
        </mxCell>
        <mxCell id="NiXLM8bQ3l16vitXh8D_-147" value="" style="verticalLabelPosition=bottom;html=1;verticalAlign=top;align=center;strokeColor=none;fillColor=#B266FF;shape=mxgraph.azure.cloud_services_configuration_file;pointerEvents=1;fontSize=16;fontColor=#FFFFFF;aspect=fixed;" vertex="1" parent="1">
          <mxGeometry x="1033" y="397" width="38" height="40" as="geometry" />
        </mxCell>
        <mxCell id="NiXLM8bQ3l16vitXh8D_-148" value="" style="verticalLabelPosition=bottom;shadow=0;dashed=0;align=center;html=1;verticalAlign=top;strokeWidth=1;shape=mxgraph.mockup.misc.shoppingCart;strokeColor=#B266FF;fillColor=none;fontSize=16;fontColor=#FFFFFF;aspect=fixed;" vertex="1" parent="1">
          <mxGeometry x="415" y="561" width="40" height="40" as="geometry" />
        </mxCell>
        <mxCell id="NiXLM8bQ3l16vitXh8D_-149" value="" style="html=1;aspect=fixed;strokeColor=none;shadow=0;align=center;verticalAlign=top;fillColor=#B266FF;shape=mxgraph.gcp2.play_start;dashed=0;fontFamily=Helvetica;fontSize=16;fontColor=#FFFFFF;strokeWidth=1;gradientColor=none;" vertex="1" parent="1">
          <mxGeometry x="536" y="560" width="40" height="40" as="geometry" />
        </mxCell>
        <mxCell id="NiXLM8bQ3l16vitXh8D_-150" value="" style="html=1;aspect=fixed;strokeColor=none;shadow=0;align=center;verticalAlign=top;fillColor=#B266FF;shape=mxgraph.gcp2.data_increase;dashed=0;fontFamily=Helvetica;fontSize=16;fontColor=#FFFFFF;strokeWidth=1;" vertex="1" parent="1">
          <mxGeometry x="656.5" y="558" width="40" height="40" as="geometry" />
        </mxCell>
        <mxCell id="NiXLM8bQ3l16vitXh8D_-151" value="" style="shape=mxgraph.signs.transportation.truck_1;html=1;fillColor=none;strokeColor=#B266FF;verticalLabelPosition=bottom;verticalAlign=top;align=center;shadow=0;dashed=0;fontFamily=Helvetica;fontSize=16;fontColor=#FFFFFF;strokeWidth=2;" vertex="1" parent="1">
          <mxGeometry x="779" y="560" width="40" height="40" as="geometry" />
        </mxCell>
        <mxCell id="NiXLM8bQ3l16vitXh8D_-152" value="" style="shape=mxgraph.signs.transportation.airplane_4;html=1;fillColor=#000000;strokeColor=#B266FF;verticalLabelPosition=bottom;verticalAlign=top;align=center;shadow=0;dashed=0;fontFamily=Helvetica;fontSize=16;fontColor=#FFFFFF;strokeWidth=2;" vertex="1" parent="1">
          <mxGeometry x="1022" y="560" width="40" height="40" as="geometry" />
        </mxCell>
        <mxCell id="NiXLM8bQ3l16vitXh8D_-153" value="" style="verticalLabelPosition=bottom;html=1;verticalAlign=top;align=center;strokeColor=#B266FF;fillColor=none;shape=mxgraph.azure.health_monitoring;shadow=0;dashed=0;fontFamily=Helvetica;fontSize=16;fontColor=#FFFFFF;strokeWidth=2;" vertex="1" parent="1">
          <mxGeometry x="1262" y="558" width="40" height="40" as="geometry" />
        </mxCell>
        <mxCell id="NiXLM8bQ3l16vitXh8D_-154" value="" style="html=1;verticalLabelPosition=bottom;align=center;labelBackgroundColor=#ffffff;verticalAlign=top;strokeWidth=2;strokeColor=#B266FF;fillColor=none;shadow=0;dashed=0;shape=mxgraph.ios7.icons.chat;fontSize=16;fontColor=#FFFFFF;aspect=fixed;" vertex="1" parent="1">
          <mxGeometry x="1143" y="569" width="40" height="24" as="geometry" />
        </mxCell>
        <mxCell id="NiXLM8bQ3l16vitXh8D_-155" value="$" style="html=1;aspect=fixed;strokeColor=none;shadow=0;align=center;verticalAlign=top;fillColor=#B266FF;shape=mxgraph.gcp2.cost_savings;dashed=0;fontFamily=Helvetica;fontSize=16;fontColor=#B266FF;strokeWidth=2;" vertex="1" parent="1">
          <mxGeometry x="900" y="567" width="40" height="32" as="geometry" />
        </mxCell>
        <mxCell id="NiXLM8bQ3l16vitXh8D_-156" value="" style="html=1;aspect=fixed;strokeColor=none;shadow=0;align=center;verticalAlign=top;fillColor=#B266FF;shape=mxgraph.gcp2.maps_api;labelBackgroundColor=none;fontSize=16;fontColor=#B266FF;" vertex="1" parent="1">
          <mxGeometry x="1234" y="395" width="24.4" height="40" as="geometry" />
        </mxCell>
      </root>
    </mxGraphModel>
  </diagram>
</mxfile>
